# AST/ASF file generated using VICON BodyLanguage
# -----------------------------------------------
:version 1.10
:name VICON
:units
  mass 1.0
  length 0.45
  angle deg
:documentation
   .ast/.asf automatically generated from VICON data using
   VICON BodyBuilder and BodyLanguage model FoxedUp or BRILLIANT.MOD
:root
   order TX TY TZ RX RY RZ
   axis XYZ
   position 0 0 0  
   orientation 0 -0 0 
:bonedata
  begin
     id 1 
     name lhipjoint
     direction 0.515797 -0.759363 0.396637 
     length 2.47888 
     axis 0 -0 0  XYZ
  end
  begin
     id 2 
     name lfemur
     direction 0.34202 -0.939693 0  
     length 6.81885  
     axis 0 -0 20  XYZ
    dof rx ry rz
    limits (-160.0 20.0)
           (-70.0 70.0)
           (-60.0 70.0)
  end
  begin
     id 3 
     name ltibia
     direction 0.342037 -0.939687 0   
     length 7.89258   
     axis 0 -0 20   XYZ
    dof rx
    limits (-10.0 170.0)
  end
  begin
     id 4 
     name lfoot
     direction 0.173497 -0.476678 0.861787   
     length 2.51543   
     axis -90 -1.13533e-015 20   XYZ
    dof rx rz
    limits (-45.0 90.0)
           (-70.0 20.0)
  end
  begin
     id 5 
     name ltoes
     direction 1.53564e-011 -4.21897e-011 1   
     length 1.21388   
     axis -90 -1.13533e-015 20   XYZ
    dof rx
    limits (-90.0 20.0)
  end
  begin
     id 6 
     name rhipjoint
     direction -0.489454 -0.772941 0.403729   
     length 2.43534  
     axis 0 -0 0  XYZ 
  end
  begin
     id 7 
     name rfemur
     direction -0.34202 -0.939693 0   
     length 7.10357   
     axis 0 -0 -20   XYZ
    dof rx ry rz
    limits (-160.0 20.0)
           (-70.0 70.0)
           (-70.0 60.0)
  end
  begin
     id 8 
     name rtibia
     direction -0.34202 -0.939693 0   
     length 9.16127   
     axis 0 -0 -20   XYZ
    dof rx
    limits (-10.0 170.0)
 end
 begin
     id 9 
     name rfoot
     direction -0.270974 -0.748671 0.605033   
     length 1.74894  
     axis -90 1.13533e-015 -20   XYZ
    dof rx rz
    limits (-45.0 90.0)
           (-20.0 70.0)
  end
  begin
     id 10 
     name rtoes
     direction -1.53557e-011 -4.21759e-011 1   
     length 0.787585   
     axis -90 1.13533e-015 -20   XYZ
    dof rx
    limits (-90.0 20.0)
  end
  begin
     id 11 
     name lowerback
     direction -0.0140249 0.999561 0.0260968   
     length 2.16963   
     axis 0 -0 0   XYZ
    dof rx ry rz
    limits (-20.0 45.0)
           (-30.0 30.0)
           (-30.0 30.0)
  end
  begin
     id 12 
     name upperback
     direction 0.00860018 0.999959 -0.002711   
     length 2.1726   
     axis 0 -0 0   XYZ
    dof rx ry rz
    limits (-20.0 45.0)
           (-30.0 30.0)
           (-30.0 30.0)
  end
  begin
     id 13 
     name thorax
     direction 0.015211 0.999782 -0.0143191   
     length 2.17061   
     axis 0 -0 0   XYZ
    dof rx ry rz
    limits (-20.0 45.0)
           (-30.0 30.0)
           (-30.0 30.0)
  end
  begin
     id 14 
     name lowerneck
     direction -0.0140143 0.999447 0.030145   
     length 2.26749   
     axis 0 -0 0   XYZ
    dof rx ry rz
    limits (-20.0 45.0)
           (-30.0 30.0)
           (-30.0 30.0)
  end
  begin
     id 15 
     name upperneck
     direction 0.118062 0.961438 -0.248392   
     length 2.22728   
     axis 0 -0 0   XYZ
    dof rx ry rz
    limits (-20.0 45.0)
           (-30.0 30.0)
           (-30.0 30.0)
  end
  begin
     id 16
     name head
     direction 0.0431885 0.9954 -0.085514  
     length 2.28786  
     axis 0 -0 0   XYZ
    dof rx ry rz
    limits (-20.0 45.0)
           (-30.0 30.0)
           (-30.0 30.0)
  end
  begin
     id 17 
     name lclavicle
     direction 0.912126 0.409548 0.0172323  
     length 4.31571  
     axis 0 -0 0   XYZ
    dof ry rz
    limits (-20.0 10.0)
           (0.0 20.0)
  end
  begin
     id 18 
     name lhumerus
     direction 1 -4.48977e-011 1.93091e-027   
     length 5.13658   
     axis 180 -30 -90   XYZ
    dof rx ry rz
    limits (-60.0 90.0)
           (-90.0 90.0)
           (-90.0 90.0)
  end
  begin
     id 19
     name lradius
     direction 1 -4.48916e-011 6.84018e-027   
     length 3.22473   
     axis 180 -30 -90   XYZ
    dof rx
    limits (-10.0 170.0)
  end
  begin
     id 20
     name lwrist
     direction 1 -4.48987e-011 7.01981e-027   
     length 1.61236   
     axis -4.37994e-015 90 90   XYZ
    dof ry
    limits (-180.0 0.0)
 end
  begin
     id 21 
     name lhand
     direction 1 -4.49037e-011 1.40335e-026   
     length 0.936406   
     axis -8.96029e-015 90 90   XYZ
    dof rx rz
    limits (-90.0 90.0)
           (-45.0 45.0)
  end
  begin
     id 22 
     name lfingers
     direction 1 -4.48886e-011 2.8104e-026   
     length 0.754955   
     axis -1.79203e-014 90 90   XYZ
    dof rx
    limits (0.0 90.0)
  end
  begin
     id 23
     name lthumb
     direction 0.707107 -6.34937e-011 0.707107   
     length 1.08397   
     axis -90 45 -4.48555e-014   XYZ
    dof rx rz
    limits (-45.0 45.0)
           (-45.0 45.0)
  end
  begin
     id 24 
     name rclavicle
     direction -0.947962 0.317997 0.0156638   
     length 4.86918  
     axis 0 -0 0   XYZ 
    dof ry rz
    limits (-10.0 20.0)
           (-20.0 0.0)
  end
  begin
     id 25 
     name rhumerus
     direction -1 -4.48951e-011 2.80534e-018  
     length 5.60911   
     axis 180 30 90   XYZ
    dof rx ry rz
    limits (-90.0 60.0)
           (-90.0 90.0)
           (-90.0 90.0)
  end
  begin
     id 26 
     name rradius
     direction -1 -4.4898e-011 2.11315e-027   
     length 3.38704   
     axis 180 30 90   XYZ
    dof rx
    limits (-10.0 170.0)
  end
  begin
     id 27 
     name rwrist
     direction -1 -4.48933e-011 7.02314e-027   
     length 1.69352   
     axis -4.37994e-015 -90 -90   XYZ
    dof ry
    limits (-180.0 0.0)
  end
  begin
     id 28
     name rhand
     direction -1 -4.48937e-011 1.40458e-026   
     length 0.755878   
     axis -8.96029e-015 -90 -90   XYZ
    dof rx rz
    limits (-90.0 90.0)
           (-45.0 45.0)
  end
  begin
     id 29
     name rfingers
     direction -1 -4.4901e-011 2.80737e-026   
     length 0.609409   
     axis -1.79203e-014 -90 -90   XYZ
    dof rx
    limits (0.0 90.0)
  end
  begin
     id 30
     name rthumb
     direction -0.707107 -6.34968e-011 0.707107   
     length 0.874992   
     axis -90 -45 4.48555e-014   XYZ
    dof rx rz
    limits (-45.0 45.0)
           (-45.0 45.0)
  end
:hierarchy
  begin
    root lhipjoint rhipjoint lowerback
    lhipjoint lfemur
    lfemur ltibia
    ltibia lfoot
    lfoot ltoes
    rhipjoint rfemur
    rfemur rtibia
    rtibia rfoot
    rfoot rtoes
    lowerback upperback
    upperback thorax
    thorax lowerneck lclavicle rclavicle
    lowerneck upperneck
    upperneck head
    lclavicle lhumerus
    lhumerus lradius
    lradius lwrist
    lwrist lhand lthumb
    lhand lfingers
    rclavicle rhumerus
    rhumerus rradius
    rradius rwrist
    rwrist rhand rthumb
    rhand rfingers
  end

#!OML:ASF C:\ViconDB\ViconDB\414\Spring2016\041811\Spring2016.ASF
:FULLY-SPECIFIED
:DEGREES
62
root 9.40899 18.1107 3.92045 -176.316 -2.09072 -179.713
lowerback -2.74966 1.24643 -2.59868
upperback 0.550345 1.75363 -0.615024
thorax 2.04733 0.842044 0.90217
lowerneck -8.76057 -4.97301 -11.6855
upperneck 13.3382 -8.54855 17.3184
head 6.73646 -3.85014 6.81064
rclavicle 8.12532e-015 3.18055e-015
rhumerus -43.7123 -19.7283 -82.1456
rradius 37.1476
rwrist 40.9394
rhand -33.1732 -13.0191
rfingers 7.12502
rthumb -6.3814 -42.9029
lclavicle 8.12532e-015 3.18055e-015
lhumerus -39.9712 -0.928189 86.8607
lradius 28.7331
lwrist -35.4632
lhand -26.8508 13.9648
lfingers 7.12502
lthumb -0.276029 43.9444
rfemur -4.48456 -15.1946 14.7145
rtibia 21.6112
rfoot -169.862 5.14725
rtoes -12.01
lfemur -10.2436 -3.95425 -15.2686
ltibia 28.8121
lfoot -24.6485 8.46673
ltoes -10.123
63
root 9.36757 18.106 3.90609 -176.376 -2.01464 -179.676
lowerback -2.6965 1.29572 -2.75994
upperback 0.646248 1.82429 -0.442178
thorax 2.1032 0.873872 1.17262
lowerneck -8.80768 -5.05492 -11.9811
upperneck 13.3195 -8.58475 17.2937
head 6.75668 -3.87291 6.84965
rclavicle -3.37934e-015 -9.14409e-015
rhumerus -43.5164 -19.4979 -81.883
rradius 37.2503
rwrist 40.2758
rhand -32.8349 -13.232
rfingers 7.12502
rthumb -6.05482 -43.1254
lclavicle -3.37934e-015 -9.14409e-015
lhumerus -39.8752 -0.933513 87.3653
lradius 28.8903
lwrist -34.1665
lhand -26.5491 14.0035
lfingers 7.12502
lthumb 0.0154018 43.9833
rfemur -4.80135 -15.0238 14.6149
rtibia 22.3125
rfoot -169.892 5.03392
rtoes -12.1293
lfemur -10.0953 -4.13969 -15.4048
ltibia 28.8196
lfoot -24.8545 8.59977
ltoes -10.1075
64
root 9.32389 18.1026 3.89845 -176.449 -2.04073 -179.738
lowerback -2.4854 1.3089 -2.79053
upperback 0.711819 1.83652 -0.511053
thorax 2.05284 0.879383 1.11495
lowerneck -8.8779 -5.05032 -11.7066
upperneck 13.2578 -8.60628 17.2714
head 6.74117 -3.87111 6.7883
rclavicle -1.18277e-014 7.55382e-015
rhumerus -43.4127 -19.7571 -81.6931
rradius 37.0812
rwrist 40.749
rhand -33.1884 -13.0428
rfingers 7.12502
rthumb -6.39614 -42.9262
lclavicle -1.18277e-014 7.55382e-015
lhumerus -39.8577 -1.24362 87.581
lradius 28.9691
lwrist -33.675
lhand -26.4492 14.2589
lfingers 7.12502
lthumb 0.111904 44.2386
rfemur -5.22962 -14.9883 14.3811
rtibia 23.2618
rfoot -169.89 4.96181
rtoes -11.8827
lfemur -9.96097 -4.27457 -15.65
ltibia 28.7758
lfoot -24.9467 8.64874
ltoes -10.1152
65
root 9.28311 18.1024 3.89544 -176.589 -2.15264 -179.702
lowerback -2.12155 1.30015 -2.87479
upperback 0.769421 1.81463 -0.437787
thorax 1.90365 0.868753 1.22758
lowerneck -8.92899 -5.09205 -11.683
upperneck 13.2149 -8.64694 17.2456
head 6.74157 -3.88703 6.76898
rclavicle -3.39922e-014 -2.38542e-015
rhumerus -43.256 -19.8779 -81.4001
rradius 36.9427
rwrist 40.9798
rhand -33.1523 -13.1276
rfingers 7.12502
rthumb -6.3612 -43.0121
lclavicle -3.39922e-014 -2.38542e-015
lhumerus -39.8409 -1.49526 87.9208
lradius 28.9501
lwrist -33.5155
lhand -26.3815 14.1305
lfingers 7.12502
lthumb 0.177234 44.1102
rfemur -5.69926 -14.8724 14.2626
rtibia 24.4062
rfoot -170.101 4.79164
rtoes -11.7694
lfemur -9.78543 -4.30841 -15.7528
ltibia 28.7102
lfoot -24.9413 8.56959
ltoes -10.214
66
root 9.24024 18.1023 3.88899 -176.695 -2.1344 -179.736
lowerback -1.75157 1.32854 -2.99964
upperback 0.771005 1.84123 -0.400722
thorax 1.69139 0.883313 1.32633
lowerneck -8.81774 -5.07717 -11.6532
upperneck 13.054 -8.61972 17.2771
head 6.66719 -3.87798 6.7765
rclavicle 2.16178e-015 -1.70955e-014
rhumerus -43.1549 -19.7624 -81.253
rradius 36.9537
rwrist 40.3999
rhand -32.8469 -13.1898
rfingers 7.12502
rthumb -6.0664 -43.083
lclavicle 2.16178e-015 -1.70955e-014
lhumerus -39.9174 -2.25938 88.5153
lradius 28.8747
lwrist -32.9958
lhand -26.4657 14.367
lfingers 7.12502
lthumb 0.0959172 44.3467
rfemur -6.36238 -14.9322 14.0199
rtibia 25.7952
rfoot -169.813 4.74934
rtoes -11.552
lfemur -9.5632 -4.42888 -15.9724
ltibia 28.5941
lfoot -25.0195 8.66586
ltoes -10.1832
67
root 9.19827 18.1047 3.88781 -176.882 -2.2007 -179.628
lowerback -1.32223 1.32485 -3.0199
upperback 0.855792 1.82103 -0.323003
thorax 1.5352 0.873964 1.40661
lowerneck -8.88213 -5.10267 -11.4882
upperneck 12.9855 -8.63782 17.1691
head 6.64856 -3.88056 6.7057
rclavicle -1.19768e-014 -2.38542e-015
rhumerus -42.952 -19.8163 -80.9935
rradius 36.7203
rwrist 41.1072
rhand -33.0476 -13.1997
rfingers 7.12502
rthumb -6.26013 -43.0872
lclavicle -1.19768e-014 -2.38542e-015
lhumerus -39.8887 -2.66983 88.8961
lradius 28.6518
lwrist -33.6734
lhand -26.6884 14.4258
lfingers 7.12502
lthumb -0.11913 44.4055
rfemur -7.05727 -14.861 13.9545
rtibia 27.4039
rfoot -169.793 4.58607
rtoes -10.9168
lfemur -9.28881 -4.48717 -16.0056
ltibia 28.4458
lfoot -25.0002 8.62475
ltoes -10.1255
68
root 9.15146 18.106 3.88697 -177.026 -2.14097 -179.729
lowerback -0.879503 1.35387 -3.22143
upperback 0.90029 1.84496 -0.276804
thorax 1.32364 0.885697 1.55585
lowerneck -8.86472 -5.108 -11.4557
upperneck 12.851 -8.60955 17.1117
head 6.59524 -3.86774 6.68133
rclavicle -3.13086e-015 7.95139e-016
rhumerus -42.7569 -19.7818 -80.7181
rradius 36.5225
rwrist 41.427
rhand -33.2108 -13.4082
rfingers 7.12502
rthumb -6.4177 -43.291
lclavicle -3.13086e-015 7.95139e-016
lhumerus -39.9179 -3.2391 89.4361
lradius 28.5548
lwrist -33.9278
lhand -26.472 14.6402
lfingers 7.12502
lthumb 0.0898649 44.6199
rfemur -7.97324 -14.6382 13.6087
rtibia 29.2418
rfoot -169.653 4.41087
rtoes -10.0818
lfemur -8.98751 -4.41916 -16.2961
ltibia 28.2242
lfoot -24.9719 8.57221
ltoes -10.0979
